<?xml version="1.0" encoding="UTF-8"?>
<svg id="Layer_2" data-name="Layer 2" xmlns="http://www.w3.org/2000/svg" viewBox="0 0 609.16 875.3">
  <defs>
    <style>
      .cls-1 {
        opacity: .65;
      }

      .cls-2 {
        fill: #e7e7dc;
      }
    </style>
  </defs>
  <g class="cls-1">
    <path class="cls-2" d="M572.79,467.71c-5.33-5.52-10.07-11.6-14.4-17.93-4.11-6.01-7.56-12.4-11.51-18.51-4.09-6.34-9.17-9.73-16.56-11.07-7.47-1.35-15.11-1.81-22.67-2.29-16.28-1.03-33.27-1.61-48.33-8.59-4.87-2.26-9.29-5.25-13.2-8.78,16.69-5.6,33-12.25,48.84-20.07,7.63-1.52,15.17-3.45,22.56-5.89,35.21-11.65,68.04-36.66,80.31-72.8,2.43-7.17,3.87-14.49,4.43-21.84,1.99-.68,4.12-.84,6.32-.24.31.08.86-.37.42-.49-2.32-.63-4.59-.49-6.71.18,2.16-30.81-11.16-62.07-32.34-84.47-28.38-30.03-68.49-45.56-108.33-53.17-23.53-4.5-47.45-6.51-71.32-8.23-23.98-1.73-47.96-3.43-71.91-5.47-47.66-4.07-95.26-9.18-142.57-16.28-8.05-1.21-16.1-2.48-24.13-3.81-18.89-20.21-45.16-31.39-69.86-42.66C57.07,54.02,30.54,40.62,14.71,17.57,11,12.15,8.05,6.28,5.9.07c-.06-.18-.78.03-.72.19,9.15,26.47,32.84,43.44,56.68,55.94,24.67,12.94,51.39,21.99,73.99,38.66,5.25,3.87,10.24,8.17,14.73,12.91-39.04-6.49-77.85-14.45-116.16-24.4-11.33-2.94-22.6-6.07-33.83-9.36-.29-.09-.85.34-.42.47,45.29,13.29,91.41,23.61,137.9,31.72,4.36.76,8.73,1.48,13.1,2.21,4.85,5.21,9.09,10.97,12.4,17.33,6.63,12.72,7.98,27.12,13.13,40.37,2.39,6.16,5.76,11.95,10.69,16.44,5.76,5.24,13.05,8.45,20.21,11.29,14.18,5.64,28.94,9.72,43.84,12.94,59.21,12.8,124.96,11.9,177.25,46.3,11.98,7.88,23.72,19.13,23.6,34.53-.12,14.79-10.09,27.52-16.97,39.87-6.66,11.96-10.3,24.44-8.39,38.18.91,6.56,2.95,12.97,5.96,18.88-11.8-.11-23.61-.56-35.32-.98-23.37-.83-46.94-1.07-70.02,3.25-22.2,4.15-43.48,12.06-64.15,21-33.03,14.28-67.65,29.19-93.9,54.23-7.15,3.17-14.19,6.61-21.07,10.36-27.12,14.79-52.13,34.41-70.47,59.47-17.11,23.37-28.26,51.85-26.52,81.15,1.6,26.92,13.61,54.06,35.76,70.24,25.64,18.73,59.39,19.92,89.7,15.78,7.3-1,14.55-2.29,21.77-3.68,39.29,5.61,78.94,8.11,118.39,12.28,21.14,2.23,42.24,4.94,63.14,8.86,15.28,2.86,32.01,5.51,45.96,13.03.92.99,1.85,1.97,2.76,2.97,10.8,11.9,20.99,24.36,30.53,37.3.36.48.71.97,1.06,1.46,2.41,5.55,4.45,11.2,6.19,16.78,5.91,18.99,8.13,39.14,6.48,58.96-.79,9.51-2.5,18.91-5.04,28.1-.09.34.65.26.73-.06,9.25-33.38,6.83-69.67-6.71-101.52,18.06,25.02,33.68,51.81,46.52,79.87,3.29,7.19,6.39,14.46,9.32,21.81.09.23.8,0,.72-.19-11.71-29.39-26.37-57.59-43.7-84.06-4.55-6.94-9.28-13.76-14.18-20.45-.89-1.98-1.83-3.94-2.81-5.88-7.33-14.49-17.08-27.55-31.21-35.42-3.81-4.12-7.68-8.18-11.64-12.16-5.67-5.71-11.38-11.56-17.93-16.27-6.49-4.66-13.85-7.63-21.55-9.65-17.04-4.47-34.99-6.53-52.53-7.76-17.85-1.25-35.78-1.19-53.62.2-17.69,1.38-35.11,4.3-52.49,7.79-1.53.31-3.07.62-4.6.93-9.81-2.59-19.46-5.79-28.8-10.02-11.14-5.05-21.93-11-32.23-17.59-4.86-3.11-9.41-6.55-13.16-10.97-3.67-4.31-6.81-9.1-9.94-13.81-6.55-9.86-12.72-20.94-12.19-33.15.07-.05.12-.11.12-.19-.17-24.56,3.18-49.46,10.74-72.93,10.37-15.1,22.95-28.66,37.45-39.89,31.75-24.6,70.78-36.83,108.65-48.47,20.81-6.4,41.63-12.79,62.74-18.14,2.66-.68,5.33-1.33,8.01-1.96,1.57-.15,3.15-.3,4.72-.45.34-.03.62-.41.11-.36-.73.07-1.47.14-2.2.21,17.81-4.12,35.79-7.46,53.65-11.35,15.3-3.33,30.37-7.44,45.14-12.36,22.84,20.59,56.38,14.63,84.45,19.67,4.13.74,8.15,1.99,11.37,4.81,3.1,2.71,5.23,6.33,7.3,9.84,3.73,6.37,7.61,12.64,11.94,18.62,8.11,11.19,17.79,21.71,29.9,28.61,5.68,3.24,11.8,5.54,18.22,6.8.18.03.81-.25.59-.29-14.2-2.79-26.32-10.89-36.26-21.17ZM437.51,737.41c9.26,8.33,16.28,19.22,21.63,30.77-9.68-13.04-20.02-25.59-30.99-37.56,3.31,1.94,6.45,4.18,9.36,6.79ZM534.74,367.25c-12.33,5.76-25.05,9.69-38.02,12.33,4.69-2.35,9.34-4.78,13.94-7.33,16.89-9.37,33.08-20,48.37-31.79,6.91-5.33,13.82-10.84,19.46-17.54,5.78-6.86,8.89-14.4,10.9-23.06,1.12-4.82,2.24-9.92,5.22-13.98,1.78-2.43,4.19-4.53,6.92-5.66-3.13,39.16-32.32,70.93-66.8,87.04ZM429.47,341.8c4.36-13.85,14.1-25.16,19.77-38.4,2.51-5.86,4.17-12.17,3.68-18.59-.54-7.01-3.64-13.4-8.09-18.75-9.36-11.24-23.38-18.77-36.44-24.86-13.32-6.21-27.35-10.79-41.59-14.35-29.79-7.47-60.42-10.7-90.65-15.79-15.12-2.55-30.19-5.54-44.94-9.74-7.17-2.04-14.25-4.37-21.2-7.06-7.74-3-15.71-6.31-21.93-11.96-11.06-10.04-13.47-25.52-17.21-39.23-3.55-12.97-9.48-24.53-18.58-34.47,42.06,6.93,84.39,12.18,126.81,16.37,23.71,2.35,47.46,4.37,71.22,6.18,23.84,1.82,47.74,3.13,71.53,5.54,43.61,4.42,88.29,13.62,124.84,39.16,33.2,23.2,57.73,61.54,54.97,103.2-.01.2-.04.4-.05.6-3.54,1.35-6.59,4.22-8.59,7.52-4.9,8.11-4.58,18.29-9.04,26.68-4.54,8.54-11.76,15.3-19.17,21.35-7.65,6.25-15.64,12.11-23.79,17.68-14.72,10.07-30.14,19.11-46.1,27.06-20,3.89-40.55,4.78-61.12,4.61-6.8-12.97-8.81-28.46-4.32-42.74ZM230.59,689.04c18.27-3.37,36.74-5.45,55.31-6.04,18.58-.59,37.2.25,55.65,2.52,8.97,1.1,17.92,2.5,26.76,4.33,8.78,1.82,17.57,4.33,25.23,9.13,7.11,4.45,13.1,10.47,19.01,16.35,4.21,4.19,8.31,8.49,12.36,12.83-1.27-.65-2.57-1.27-3.91-1.84-8.8-3.7-18.21-5.77-27.52-7.76-10.29-2.2-20.65-4.07-31.05-5.7-41.36-6.47-83.18-9.07-124.79-13.37-12.45-1.29-24.9-2.73-37.3-4.48,3.88-.76,7.75-1.54,11.62-2.32.35.09.7.19,1.06.29,13.17,3.39,26.6,5.65,40,7.89.19.03.84-.27.46-.34-13.54-2.27-27.08-4.63-40.32-8.08,5.8-1.17,11.6-2.34,17.41-3.41ZM116.88,578.74c-.97,9.17-1.4,18.38-1.35,27.6-.06.04-.1.09-.11.14-.63,11.1,4.38,21.35,10.17,30.5,2.98,4.7,6.13,9.36,9.48,13.81,3.49,4.63,7.52,8.55,12.28,11.87,5.02,3.5,10.35,6.6,15.67,9.62,5.16,2.92,10.4,5.69,15.74,8.26,10.46,5.03,21.31,8.98,32.51,11.97-3.97.8-7.96,1.6-11.97,2.37-7.88-1.12-15.75-2.36-23.59-3.77-20.22-3.64-41.02-7.86-60.32-15.08-9.55-3.58-16.9-9.38-19.31-19.69-2.02-8.65-1.8-18.1-1.43-26.93.73-17.42,4.11-34.71,9.8-51.18,5.21-15.06,12.38-29.45,21.24-42.71-4.38,14.09-7.28,28.65-8.83,43.23ZM126.35,533.49c-3.62,5.24-6.98,10.68-10.06,16.32-16.27,29.87-24.9,64.96-22.06,99.02.73,8.71,3.17,17.06,10.51,22.43,7.2,5.27,16.5,7.45,24.94,9.87,20.02,5.73,40.46,9.86,61.03,13.03,2.31.36,4.61.69,6.92,1.03-27.46,5.2-55.61,8.74-82.84.77-14.27-4.18-27.42-11.63-37.66-22.48-9.43-9.99-16.21-22.29-20.32-35.36-8.71-27.7-4.85-57.23,7.76-83.09,13.62-27.93,36.03-50.79,61.38-68.36,13.48-9.34,27.87-17.26,42.83-23.95-3.97,3.84-7.76,7.92-11.3,12.27-14.09,17.29-24.3,37.32-31.12,58.5ZM305.02,435.05c-20.32,5.95-40.64,12.07-60.71,18.8-18.79,6.3-37.39,13.46-54.81,22.98-24.66,13.48-45.75,32.13-61.86,54.84,4.25-12.76,9.76-25.09,16.64-36.68,7.14-12.04,15.78-23.11,25.79-32.83,14.62-6.46,29.77-11.78,45.12-16.14,34.87-9.89,70.9-14.94,106.88-18.72,6.27-.66,12.54-1.27,18.81-1.88-12.02,2.94-23.97,6.14-35.87,9.63ZM432.98,404.36c-20.95,6.23-42.42,10.31-63.8,14.7-8.68,1.78-17.31,3.71-25.91,5.79-34.44,3.28-68.92,7.08-102.75,14.51-23.83,5.23-47.36,12.33-69.72,22.11,4.14-3.96,8.5-7.7,13.09-11.17,17.83-13.49,38.15-23.15,58.37-32.45,21.45-9.87,43.14-19.5,65.9-25.95,23.97-6.79,48.46-8.65,73.28-8.26,17.27.28,34.52,1.35,51.79,1.6,2.72,5.16,6.18,9.91,10.34,14,.47.46.94.89,1.42,1.32-3.98,1.33-7.98,2.61-12.01,3.8ZM434.17,385.25c6.03.08,12.05.06,18.08-.14,13.64-.44,27.34-1.71,40.77-4.25-15.28,7.5-31.05,14-47.18,19.42-4.7-4.31-8.63-9.43-11.67-15.03Z"/>
  </g>
</svg>