<?xml version="1.0" encoding="UTF-8"?>
<svg id="Layer_1" class="icon w-10 h-10 max-w-none" data-name="Layer 1" xmlns="http://www.w3.org/2000/svg" viewBox="0 0 144.4 147.4">
  
  <path  d="M142.62,31.7c-.15-1.5-.87-2.59-1.83-3.29-.67-.92-1.75-1.52-3.23-1.45-26.4,1.35-52.61-5.4-78.99-2.36-.05,0-.09.02-.14.02-.04,0-.07,0-.11,0-17.74.07-35.47.15-53.21.22-1.17,0-2.07.42-2.74,1.06-.26.37-.52.74-.8,1.09-.13.25-.24.51-.32.78-.28.54-.45,1.17-.49,1.9C-.83,58.09.08,86.57,3.47,114.81c.07.55.21,1.04.41,1.48.19.67.56,1.3,1.16,1.83.81,1.24,2.32,2.07,3.85,2.1,5.55,2.39,11.51,3.03,17.59,3.1,8.4.09,16.82-.26,25.22-.52,17.46-.53,34.93-1.04,52.37.3.53.04,1,0,1.42-.12,11.98.48,23.92-.9,35.52-4.07,3.09-.84,3.59-4.13,2.4-6.39,1.02-26.94,1.88-53.95-.79-80.82ZM57.83,33.4c.15,0,.3,0,.45,0,.01,0,.03,0,.04,0,.27,0,.53-.03.77-.07,21.99-2.42,43.86,1.86,65.82,2.51-7.99,5.8-15.98,11.61-24.01,17.37-4.82,3.45-9.69,6.85-14.79,9.85-4.7,2.76-9.99,5.69-15.55,4.44-.54-.12-1.05-.14-1.52-.07-5.16-2.02-9.42-6.35-13.76-9.74-5.14-4.02-10.38-7.91-15.71-11.66-6.18-4.35-12.48-8.49-18.88-12.46,12.38-.05,24.76-.1,37.13-.15ZM8.87,36.57c9.47,5.58,18.73,11.54,27.72,17.93,5.31,3.77,10.54,7.68,15.67,11.73.24.19.48.38.72.57-15.09,11.79-30.07,23.9-42.02,39.1-2.33-23.03-3.04-46.18-2.08-69.32ZM104.35,114.16c-.43-.02-.82.02-1.18.1-16.03-1.17-32.1-.82-48.15-.34-8.04.24-16.08.51-24.13.6-5.01.05-10.16.15-15-1.09,11.92-15.99,27.67-28.4,43.16-40.48.32-.25.59-.52.82-.81,2.49,1.73,5.11,3.22,8.09,4.15.91.29,1.73.26,2.43.02,6.51.8,12.75-1.46,18.6-4.71.32.61.79,1.17,1.47,1.63,8.29,5.6,16.82,11.55,23.73,18.96,5.57,5.97,9.84,13.41,14.12,20.56-7.9,1.35-15.88,1.83-23.95,1.42ZM135.15,107.59c-4.54-7.54-9.1-15.28-14.99-21.62-6.88-7.39-15.36-13.48-23.65-19.12,1.61-1.1,3.18-2.21,4.7-3.27,11.33-7.91,22.44-16.17,33.63-24.28,1.72,22.72,1.15,45.52.32,68.28Z"/>
  <path  d="M138.57,119.46c-1.26-.77-2.63-.21-3.42.93-2.43,3.5-5.29,6.69-8.44,9.51-1.49,1.34-3.05,2.63-4.75,3.68-1.58.96-3.36,1.75-5.2,1.24-3.11-.86-4.44,4.16-1.33,5.01,5.34,1.47,10.1-2.18,13.99-5.52,3.82-3.29,7.15-7.11,10.05-11.29.79-1.14.19-2.9-.9-3.56Z"/>
  <g>
    <path  d="M141.73,133.26c-1.21-.67-2.7-.31-3.42.93-.3.52-.62,1.02-.96,1.51-.07.1-.15.2-.22.3.06-.09.11-.13-.03.04h0s-.04.07-.06.1c.01-.02.03-.05.05-.08-.18.23-.36.45-.54.67-.79.93-1.65,1.79-2.58,2.56-.02.01-.04.03-.05.05-.09.07-.19.14-.27.2-.24.18-.47.35-.72.52-.48.33-.98.64-1.49.93-.5.29-1.02.54-1.54.79-.13.05-.26.11-.4.16-.3.12-.6.23-.91.33-1.24.42-2.18,1.82-1.75,3.2.4,1.29,1.74,2.27,3.08,1.82,5.29-1.8,9.84-5.51,12.71-10.47.68-1.17.29-2.91-.9-3.56Z"/>
    <path  d="M137.14,136.01s-.03.04-.04.06c0,0,0,0,.01-.01.01-.02.02-.03.03-.05Z"/>
  </g>
  <path  d="M21,.3c-3.82,2.27-7.43,4.91-10.79,7.87-1.63,1.44-3.2,2.96-4.69,4.55-1.57,1.67-3.47,3.53-3.36,6.06.05,1.15.91,2.14,2.06,2.14,1.07,0,2.11-.98,2.06-2.14-.03-.72.52-1.24.97-1.74.64-.72,1.29-1.42,1.96-2.11,1.41-1.45,2.87-2.84,4.4-4.16,2.95-2.56,6.14-4.81,9.48-6.79,2.3-1.36.23-5.06-2.08-3.69Z"/>
  <path  d="M24.37,14.1c-.25-.41-.63-.77-1.11-.88-.52-.12-.94-.02-1.43.19-3.07,1.35-5.87,3.37-8.19,5.85-.68.72-.74,2.01,0,2.72.73.7,1.9.77,2.62,0,.54-.57,1.1-1.12,1.69-1.64.15-.13.3-.26.46-.39.05-.04.16-.11.2-.16.32-.25.64-.49.97-.72,1.3-.92,2.68-1.69,4.12-2.33.4-.17.74-.74.85-1.15.12-.46.07-1.07-.19-1.48Z"/>
</svg>