<?xml version="1.0" encoding="UTF-8"?>
<svg id="Layer_1" class="icon" data-name="Layer 1" xmlns="http://www.w3.org/2000/svg" viewBox="0 0 144.57 147.4">
  <path class="cls-1" d="M143.37,62.33c-1-6.13-1.25-11.67-.85-17.88.35-5.53.13-10.62-1.83-15.76,0-.06,0-.12-.02-.18-1.96-12.79-13.28-21.55-25.14-24.56-14.41-3.66-29.22-.38-43.84-1.15-.48-.15-1.01-.23-1.62-.19-5.71.35-11.49-2.07-17.22-2.49-6.1-.45-12.23.24-18.16,1.71-.27.07-.52.16-.75.26-12,2.35-23.92,7.82-29.51,19.45-3.12,6.48-3.51,13.73-3.85,20.8-.42,8.57-.49,17.15-.26,25.72,0,.33.05.64.11.94-1.09,19.27-.13,38.51,2.67,57.6.18,1.21.71,2.05,1.43,2.57,4.31,8.58,13.59,12.08,22.88,13.36,11.83,1.63,23.73,2.8,35.6,4.15.65.46,1.49.72,2.52.7,9.92-.27,19.83-.73,29.72-1.47,7.91-.6,16.12-1.02,23.72-3.5,7.2-2.35,13.52-6.63,17.21-13.44,4.3-7.93,6.76-17.8,7.94-26.69.06-.44.02-.87-.1-1.27.22-12.79,1.4-26.05-.66-38.7ZM64.59,137.99c-1.05-.12-2.09-.24-3.14-.36.38-9.54.76-19.08,1.14-28.62.16-3.99,1.24-9.21-.74-12.91-1.96-3.67-5.57-4.15-9.35-4.27-2.27-.08-4.6.02-6.86-.21-.19-.02-.33-.03-.45-.02,0-.03,0-.05-.01-.09-.25-1.01-.06-2.3-.08-3.36-.03-1.45-.92-5.94-.11-7.1.7-1,3.4-.5,4.84-.51,3.82-.03,8.73.7,11.63-2.44,3.26-3.53,1.54-7.64,1.83-11.83.03-.42,0-.81-.06-1.17-.3-7.86,2.42-15.69,8.28-21.08,7.05-6.5,19.05-7.06,28.01-5.13,2.34.5,3.09,1.35,2.85,3.8-.13,1.33-.63,5.07-1.9,5.66-1.69.78-5.28-.42-6.99-.75-2.36-.46-4.55-.76-6.85.17-4.03,1.63-6.73,6.47-8.36,10.28-1.96,4.58-2.75,9.51-2.29,14.49.23,2.45,1.84,4.37,4.41,4.45,4.61.14,9.21.28,13.82.43.54.02,2.71.31,4.48.41-.23.71-.47,1.42-.74,2.12-1.17,3.06-2.62,7.76-6.38,7.92-3.8.16-7.4-1-11.2-.04-4.09,1.04-5.55,4.03-5.71,8.01-.19,4.87-.23,9.74-.34,14.61-.21,9.27-.43,18.54-.64,27.82-2.49.09-4.97.18-7.46.25-.48-.25-1.03-.43-1.65-.5ZM135.44,83.18c-.09,6.25-.17,12.51-.26,18.76,0,.27.02.52.05.77-.59,4.1-1.82,8.1-3.05,12.04-1.09,3.51-2.11,7.09-3.93,10.3-3.35,5.89-9.47,8.52-15.79,9.94-7,1.57-14.3,1.87-21.44,2.35-2.83.19-5.66.35-8.49.5.24-10.36.48-20.71.72-31.07.07-2.92.14-5.85.2-8.77l.04-1.71c.81-.04,1.71-.05,1.71-.05,4.1.14,8.05,1.14,11.97-.68,4.01-1.86,6.12-5.91,7.86-9.79,1.65-3.67,3.99-8.41,2.75-12.52-1.48-4.91-6.69-4.55-10.8-4.67-4.08-.13-8.16-.25-12.24-.38.12-1.7.42-3.38.98-5.06.58-1.74,2.2-6.31,4.1-7.04,1.12-.43,3.11.44,4.25.63,1.57.26,3.18.5,4.77.56,2.77.1,5.54-.3,7.71-2.18,3.73-3.23,5.15-10.38,4.56-15.09-.78-6.15-5.63-9.3-11.36-10.06-11.85-1.58-24.76-.89-34.1,7.43-7.89,7.03-11.9,18.09-11.2,28.57,0,.09.02.18.03.26,0,.01,0,.02,0,.04-.09,1.29.04,2.35.18,3.63.02.15.13,1.08.27,1.7-.47,0-.94,0-1.41,0-1.22,0-2.45.02-3.67.03-4.03.04-8.65-.39-11.53,3.03-2.65,3.13-2.15,7.49-2.07,11.31.08,3.99-.54,9.03,2.5,12.14,2.8,2.86,7.39,2.41,11.02,2.52,1.37.04,2.74.1,4.11.13.27,0,.45,0,.56-.01-.14.06-.33.2-.37.51-.35,2.26-.18,4.74-.27,7.03l-1.13,28.33c-6.17-.71-12.34-1.42-18.52-2.14-7.67-.88-19.31-1.58-22.27-10.43-.11-.33-.25-.64-.41-.91-2.59-18.22-3.25-36.68-2.15-55.06.04-.62-.04-1.17-.2-1.65-.15-6.59-.13-13.19.11-19.78.22-6.04.12-12.46,1.97-18.28,3.78-11.93,16.71-16.77,27.96-18.2.63-.08,1.18-.27,1.67-.53,4.42-.77,8.9-.96,13.4-.49,5.2.55,10.19,2.59,15.46,2.38.21.04.42.08.65.09,13,.91,26.19-2,39.11.13,10.51,1.73,20.96,7.7,22.71,19.13.11.74.36,1.34.7,1.82,1.85,4.86.87,10.5.57,15.54-.33,5.65.54,10.91,1.42,16.46.97,6.11.67,12.32.59,18.48Z"/>
</svg>