<?xml version="1.0" encoding="UTF-8"?>
<svg id="Layer_2"  data-name="Layer 2" xmlns="http://www.w3.org/2000/svg" viewBox="0 0 635.04 11.64">
  <defs>
    <style>
      .cls-1 {
        fill: #e7e7db;
      }
    </style>
  </defs>
  <g id="Layer_1-2" data-name="Layer 1">
    <path class="cls-1" d="M.31.84c20.81,0,41.62.08,62.43-.05,10.94-.07,21.9-.19,32.83.24,10.38.41,20.71,1.39,31.03,2.34,10.33.95,20.61,1.42,31,1.77s20.93,1.21,31.4,1.84c21.16,1.27,42.39,1.74,63.57,2.9,21.02,1.15,41.89,1.72,62.96,1.71,10.34,0,20.69.1,31.02,0,9.99-.1,19.99-1.13,29.96-1.63,10.1-.51,20.25-1.44,30.29-2.39,5.14-.49,10.2-.55,15.35-.72s10.17-.7,15.32-.63c4.77.06,9.54.22,14.31,0,4.76-.21,9.43-1.07,14.19-1.31,10.31-.52,20.62-.68,30.95-.78s21.41-.23,32.1.51,20.95,1.94,31.49,2.2,20.86-.57,31.12.75c8.56,1.1,17.75,1.26,26.28-.06,5.18-.8,10.38-1.28,15.66-1.32.62,0,2.36-.73.93-.72-4.49.03-8.94.35-13.36.95-5.69.77-11,1.27-16.8,1.16-4.7-.09-9.18-.53-13.82-1.06-5.02-.58-10.13-.38-15.19-.38-10.31,0-20.45-.24-30.71-1.1s-20.84-1.7-31.36-1.75c-9.97-.04-20.03-.12-29.99.22-5.26.17-10.54.41-15.8.63-4.76.2-9.42,1.07-14.18,1.31-5.19.26-10.39.05-15.58,0-4.71-.04-9.35.44-14.04.63-4.81.19-9.55.16-14.35.59-5.25.47-10.49.85-15.75,1.25-9.9.75-19.79,1.36-29.69,2.06-10.63.75-21.14.84-31.81.84-21.04.01-42.11.31-63.11-.86-21.21-1.17-42.41-1.99-63.63-2.94-10.36-.46-20.7-1.14-31.04-1.83-10.35-.7-20.72-.84-31.08-1.38s-20.65-1.77-30.98-2.59S91.32.06,80.81.02C59.62-.06,38.43.12,17.24.12H1.71C1.22.12-.76.84.31.84H.31Z"/>
  </g>
</svg>