<?xml version="1.0" encoding="UTF-8"?>
<svg id="Layer_2" data-name="Layer 2" xmlns="http://www.w3.org/2000/svg" viewBox="0 0 628.15 9.48">
  <defs>
    <style>
      .cls-1 {
        fill: #e7e7db;
      }
    </style>
  </defs>
  <g id="Layer_1-2" data-name="Layer 1">
    <path class="cls-1" d="M.64,8.18c10.38,0,20.76-.04,31.13.01,9.94.05,19.77.04,29.65-.56,10.5-.64,20.95-1.35,31.47-1.91,10.34-.55,20.72-1.08,31.02-1.77,10.53-.71,20.81-1.23,31.44-1.44,5.64-.11,11.25-.46,16.9-.48,4.99-.02,9.96.06,14.95-.08,10.73-.28,21.39-.23,32.12-.35,9.71-.1,19.47-.46,29.17-.75,10.78-.31,21.66-.01,32.46-.1,10.23-.08,20.43-.24,30.6.44,20.55,1.38,41.44,1.02,62.02,2.25,5.08.3,10.09.69,15.21.72,5.15.03,10.3-.14,15.44.02,10.28.31,20.36,1.14,30.4,2.18,10.1,1.05,20.36,1.8,30.55,2.61,9.94.79,20.23.46,30.28.45s20.61.1,30.9-.01c10.18-.11,20.41-.79,30.51-1.38,19.11-1.1,38.34-1.6,57.48-2.54,4.36-.22,8.64-.21,12.96-.62,1.35-.13.99-.72-.33-.59-9.26.88-18.92.55-28.26,1.18-4.85.33-9.74.32-14.59.63s-9.3.53-13.98.64c-10.08.23-20.18,1.06-30.21,1.57-10.64.55-21.27.46-31.95.46-10.42,0-20.85,0-31.27,0-10.41,0-21.05-1.27-31.26-2.15-9.68-.84-19.1-2.05-28.91-2.49-4.82-.22-9.61-.61-14.46-.66-5.15-.05-10.3.13-15.44,0s-9.71-.57-14.58-.81c-5.23-.25-10.51-.39-15.76-.6-10.25-.41-20.52-.53-30.78-.96C315.35.67,305.22,0,295.02,0s-21.02.13-31.53.13c-10.08,0-20.06.31-30.13.43-5,.06-9.96.39-14.97.4-5.2.01-10.39,0-15.59,0s-9.83.2-14.75.34c-5.41.15-10.81.05-16.22.09-5.01.04-9.99.35-15,.46-5.31.11-10.63.15-15.93.37-10.26.43-20.47,1.33-30.69,1.91s-20.71,1.07-31.04,1.71c-10.2.64-20.38,1.53-30.69,1.7-10.47.17-20.99,0-31.48,0H1.45c-.9,0-2.27.65-.81.65h0Z"/>
  </g>
</svg>