<?xml version="1.0" encoding="UTF-8"?>
<svg id="instagram" class="icon w-10 h-10 max-w-none" data-name="instagram" xmlns="http://www.w3.org/2000/svg" viewBox="0 0 144.57 147.4">
  <path class="cls-1" d="M144.29,64.05c.65-12.94.29-26.77-3.11-39.31-1.38-5.09-3.74-10.08-7.86-13.53-4.56-3.83-10.34-4.97-16.07-5.95C88.61.34,59.47-1.12,30.48.84c-1.5.1-2.64.74-3.42,1.64-6.09,1.75-11.8,4.76-16.31,9.22C2.5,19.85,2.91,31.2,2.18,41.95,1.33,54.35.1,66.8,0,79.23c-.1,12.09,1.64,24.04,3.51,35.96-4.42,10.76.63,23.17,12.14,26.9,7.22,2.34,15.6,2.38,23.12,3.05,8.54.76,17.11,1.3,25.68,1.63,15.77.6,32.32,1.48,47.94-1.24,14.07-2.45,25.67-9.39,28.13-24.16,3.04-18.25,3.8-37.12,4.06-55.58,0-.65-.09-1.23-.28-1.74ZM131.2,118.05c-1.11,7.21-3.67,12.03-10.58,15.09-7.52,3.33-16.03,3.91-24.14,4.16-17.01.52-34.1-.03-51.07-1.3-8.35-.63-17.58-.62-25.69-2.83-6.06-1.65-10.24-7.84-7.37-14,.31-.66.46-1.31.49-1.94.37-.83.53-1.8.36-2.88-1.64-10.38-3.23-20.78-3.41-31.31-.19-10.67.81-21.34,1.53-31.97.33-4.86.66-9.73,1-14.59.33-4.81.19-10.14,2.62-14.47,4.64-8.25,15.95-11.56,24.81-11.72.66-.01,1.24-.13,1.76-.33,21.91-.84,43.91.21,65.6,3.44,5.45.81,11.75,1.18,16.87,3.36,4.76,2.03,6.75,6.56,7.93,11.26,3.02,11.98,3.2,24.96,2.53,37.22-.04.78.07,1.47.31,2.05-.26,16.88-.98,34.06-3.56,50.75Z"/>
  <path class="cls-1" d="M120.68,33.02c-.05-1.05-.3-2.13-.9-3.02-.28-.41-.59-.86-.97-1.2-.31-.27-.73-.61-1.08-.82-.05-.03-.1-.06-.16-.09-1.38-.72-2.82-.88-4.33-.54-.64.15-1.19.44-1.66.87-.3.19-.55.42-.78.68-3.46,2.24-2.62,8.9,2.56,8.96,1.1.53,2.39.78,3.59.4,1.24-.4,2.21-1.13,2.92-2.23.28-.43.46-.93.62-1.42.05-.23.09-.47.1-.71.03-.24.07-.48.1-.71,0-.06,0-.12,0-.18Z"/>
  <path class="cls-1" d="M106.9,62.14c-11-28.76-56.3-31.2-69.16-2.43-6.16,13.78-1.85,29.66,11.09,37.8,12.97,8.16,29.56,5.82,41.55-2.92,8.74-6.37,17.13-18,16.13-28.52.74-1,1.01-2.34.4-3.93ZM92.1,79.68c-4.14,5.19-9.79,9.49-16.12,11.67-11.92,4.12-27.72-.63-30.84-14-3.25-13.93,8.13-25.61,21.21-28.1,8.92-1.7,19.04.98,25.6,7.26-.36,1.8.13,3.81,1.97,5.17,6.11,4.55,1.79,13.46-1.83,18Z"/>
</svg>