<?xml version="1.0" encoding="UTF-8"?>
<svg id="lokation"  class="icon w-10 h-10 max-w-none" data-name="lokation" xmlns="http://www.w3.org/2000/svg" viewBox="0 0 102.61 146.82">
 
  <path  d="M62.53,29.11c-.08-.05-.16-.08-.24-.12-.49-.99-1.47-1.65-2.96-1.45-6.28.83-12.73-1.19-18.9.78-5.23,1.66-8.8,5.78-9.52,11.32-.73,5.65,1.59,10.92,3.83,15.95,2.38,5.33,5.48,9.92,10.97,12.24,5.17,2.18,11.43,2.44,16.96,2,5.36-.43,8.9-3.04,10.27-8.42,3-11.75.85-25.93-10.42-32.29ZM66.62,57.55c-.35,1.81-.49,4.01-2.31,4.82-1.55.69-3.68.43-5.34.42-3.84-.02-8.01-.1-11.5-1.94-3.47-1.83-5.13-5.41-6.67-8.87-1.52-3.41-3.5-7.45-3.01-11.32,1.16-9.03,13.93-5.65,20.5-5.96.2.19.44.36.71.52,7.85,4.43,9.19,14.06,7.62,22.32Z"/>
  <path  d="M94.49,21.03c-.33-1.19-1.07-1.92-1.94-2.26C85.93,5.08,70.62.58,56.28.07,40.9-.48,24.55,2.22,13.88,14.45,3.14,26.76-.27,44.07.02,60.08c.16,8.84,3.36,15.56,9.02,22.14,5.6,6.51,10.99,13.04,15.93,20.1,5.54,7.92,11.57,15.99,15.88,24.67,3.21,6.46,4.46,14.97,11.39,18.54.94,1.25,2.55,1.84,4.19.61,8.23-6.13,12.01-15.31,15.67-24.62,4.55-11.58,9.75-22.88,15.65-33.83,5.27-9.8,13.44-19.58,14.67-30.97,1.35-12.5-4.72-23.98-7.93-35.69ZM95.49,56.1c-.59,5.61-3.56,10.3-6.38,15.01-2.79,4.65-5.47,9.37-8.02,14.16-5.14,9.66-9.76,19.59-13.89,29.74-3.28,8.06-6.01,17.62-12.63,23.64-3.73-2.96-4.78-8.72-6.62-12.93-2.96-6.78-7.43-12.87-11.52-18.99-4.1-6.13-8.29-12.19-12.8-18.01-4.49-5.8-10.39-10.99-14-17.41-3.78-6.71-2.83-15.41-2.03-22.79.79-7.34,2.55-14.76,6.01-21.31,6.77-12.84,18.64-18.95,32.71-19.94,13.88-.98,34.44.1,40.44,15.59.32.84.86,1.43,1.48,1.82,3.08,10.2,8.39,20.56,7.24,31.42Z"/>
</svg>