<?xml version="1.0" encoding="UTF-8"?>
<svg id="Layer_1" data-name="Layer 1" xmlns="http://www.w3.org/2000/svg" viewBox="0 0 83.04 97.09">
  <defs>
    <style>
      .cls-1 {
        fill: #e7e6db;
      }
    </style>
  </defs>
  <path class="cls-1" d="M82.65,29.24c-.55-3.11-2.03-6.14-4.98-7.59-2.77-1.35-6.19-1.05-8.85.47-.18-1.73.06-3.45.22-5.18.34-.25.68-.5.99-.78.73-.64-.09-1.48-.88-1.49-.02-1.22-.22-2.44-.78-3.53-.59-1.14-1.51-2.06-2.49-2.87-4.18-3.43-9.28-5.85-14.52-7.15-.72-.18-1.44-.33-2.16-.46-.19-.28-.44-.49-.7-.5-1.89-.07-3.79-.13-5.69-.13-3.01-.09-6.03.07-9.05.27-1.54.1-3.07.22-4.58.55-1.53.34-3,.91-4.39,1.64-2.33,1.23-4.56,2.71-6.67,4.27-1.92,1.41-3.77,2.98-5.41,4.71-.12-.07-.23-.1-.29-.05-.9.8-1.8,1.6-2.7,2.4-.75.66-1.64,1.31-2.02,2.26-.28.7-.32,1.5-.34,2.29-.04-.03-.09-.06-.13-.08-.28-.15-.72-.25-.69.2.62,8.1,1.24,16.23,2.97,24.19,1.43,6.59,3.57,13.03,6.37,19.16-.13,0-.24.04-.35.09-4.3,2.08-8.79,4.27-11.99,7.93-2.78,3.17-4.32,7.73-3.13,11.89.08.29.18.58.29.85-.52,2.41.15,4.92,1.51,6.97,1.66,2.51,4.28,4.11,7.08,5.09,3,1.05,6.22,1.46,9.37,1.82,3.32.38,6.66.58,10,.61,6.63.06,13.28-.56,19.79-1.84,6.51-1.28,12.91-3.22,19.03-5.8,2.78-1.17,5.91-2.36,7.99-4.64,1.41-1.53,2.05-3.41,2.28-5.39.35-.48.67-.99.93-1.55,1.02-2.14,1.23-4.56,1.2-6.9-.02-1.18-.1-2.35-.2-3.52-.1-1.19-.19-2.39-.5-3.54-.55-2.1-1.96-3.65-3.84-4.67-1.8-.98-3.78-1.53-5.67-2.27-.81-.32-1.6-.68-2.34-1.14l.62-1.9v-.06c3.41-.21,6.5-2.24,9.07-4.39,1.43-1.2,2.75-2.55,3.76-4.12,1.03-1.61,1.63-3.45,1.92-5.34.3-1.91.34-3.86.34-5.79,0-1.67-.08-3.35-.37-5h-.02ZM18.18,7.74c1.88-1.51,3.87-2.87,5.92-4.14,1.15-.71,2.32-1.44,3.58-1.93,1.25-.49,2.62-.57,3.95-.66.23-.02.46-.03.68-.05-1.84.4-3.64.97-5.36,1.73-2.25.99-4.34,2.29-6.4,3.63-1.01.66-2.02,1.32-3.03,1.99.22-.18.44-.37.66-.55v-.02ZM11.42,15.04c.75-.66,1.49-1.33,2.24-1.99.14.06.29.06.42-.03,2.22-1.46,4.44-2.92,6.67-4.38,2-1.31,4.01-2.61,6.16-3.66,4.36-2.14,9.15-2.87,13.96-3.02,2.76-.09,5.53,0,8.29.1.21,0,.33-.11.37-.28,4.85,1.22,9.46,3.39,13.47,6.37,1.1.82,2.17,1.71,2.95,2.84.8,1.16,1.14,2.52,1.2,3.92,0,.33,0,.65,0,.98-1.12.73-2.36,1.32-3.57,1.9-1.39-.8-2.84-1.48-4.33-2.05-.02-.05-.06-.1-.12-.15-3.18-2.46-6.55-4.92-10.57-5.68,1.63.52,3.06,1.49,4.01,2.98.15.23.28.48.4.73.41.18.83.37,1.23.58-.36-.08-.72-.16-1.08-.23.49,1.2.66,2.54.56,3.85,0,.96-.25,1.89-.65,2.76-.74,1.86-2.03,3.23-3.73,4.17-3.77,2.64-9.13,4.02-13.29,2.07h-.08.05c-.48-.23-.95-.49-1.4-.81-.58-.42-1.13-.91-1.63-1.44-1.35.13-2.71.2-4.06.21.72-.07,1.44-.16,2.16-.26.63.02,1.27.04,1.9.05-.81-.89-1.45-1.93-1.78-3.09-.46.01-.93.02-1.39.01.43-.19.85-.4,1.27-.61-.1-.57-.14-1.12-.08-1.66-.12-1.28.28-2.6,1.05-3.78-.8.22-1.59.45-2.38.7-1.08-.04-2.17-.09-3.25-.15.32-.13.64-.26.97-.39h.01c.39.24.93.19,1.34.04,1.41-.51,2.83-.96,4.26-1.39.03-.03.05-.06.08-.09.7-1.08,1.56-2.12,2.55-2.9-1.79.36-3.57.82-5.31,1.36-.9.28-1.79.58-2.68.9-1.95.36-3.86.86-5.72,1.58-3.68,1.41-7.07,3.54-9.96,6.22-.28.26-.02.54.24.66-.17.05-.34.09-.52.14-.09.02-.19.06-.3.11-.73-1.09-1.11-2.4-.85-3.73.08-.43-.14-.75-.48-.94.42-.87.88-1.71,1.4-2.51h0ZM55.34,21.68c.67-.25,1.31-.55,1.94-.9.67-.28,1.34-.55,2.01-.83-.86.43-1.72.87-2.58,1.3-1.35.67-2.71,1.33-4.09,1.96.09-.09.15-.19.18-.32.1-.03.19-.05.29-.08.81-.25,1.58-.61,2.24-1.13h.01ZM53.87,19.37c.43-.07.86-.14,1.29-.2.02.04.04.07.06.11-.41.06-.82.13-1.23.18-.03-.03-.07-.06-.11-.09h0ZM23.58,26.28c-.12.07-.19.15.03.19,1.75.37,3.52.63,5.29.79h-.45c-.89-.03-1.78-.1-2.67-.18-.89-.1-1.78-.22-2.66-.39-1.08-.2-2.14-.46-3.19-.78,1.22.13,2.44.25,3.66.38h-.01ZM19.49,17.6c.61-.34,1.24-.65,1.88-.94.03.02.06.04.09.06-.66.29-1.31.58-1.97.88ZM26.04,24.95c-.11.07-.19.16-.23.27-.01.04-.02.07-.02.11-.18-.03-.36-.06-.54-.09-.4-.1-.81-.21-1.21-.32.67.03,1.33.04,2,.03ZM25.2,21s.07-.01.1-.02c.21.05.44.06.58.05.7-.05,1.41-.09,2.11-.13-.31.14-.63.27-.94.4-.62-.07-1.24-.18-1.84-.31h-.01ZM17.34,20.01c-.16.1-.32.2-.47.31-.17.12-.24.23-.26.33-.09.03-.19.06-.28.09-.08-.05-.16-.09-.26-.11.42-.21.84-.41,1.26-.61h.01ZM74.87,82.93c-1.4,2.34-4.24,3.42-6.62,4.46-5.76,2.52-11.76,4.45-17.91,5.78-6.12,1.32-12.36,2.06-18.62,2.16-3.15.05-6.31-.04-9.45-.3-3.02-.25-6.07-.58-9.03-1.23-2.8-.62-5.63-1.61-7.78-3.58-1.36-1.25-2.44-2.96-2.86-4.79,2.17,2.19,5.38,3.39,8.27,4.43,4.62,1.64,9.4,2.81,14.25,3.47,9.61,1.31,19.48.74,28.87-1.75,4.62-1.23,9.13-2.9,13.41-5.04,2.17-1.08,4.29-2.27,6.32-3.6.59-.38,1.16-.79,1.71-1.22-.15.41-.33.81-.56,1.2h0ZM70.98,58.38c1.69.6,3.46,1.26,4.71,2.6,1.62,1.73,1.78,4.19,1.96,6.44.18,2.26.31,4.56-.05,6.81,0-.1-.02-.2-.03-.3-.05-.51-.79-.51-1.13-.36-.48.21-.79.65-.73,1.17.13,1.24.27,2.58.24,3.9-.38.57-.81,1.1-1.31,1.59-1.68,1.62-3.77,2.8-5.79,3.95-4.01,2.27-8.26,4.13-12.65,5.55-8.78,2.85-18.15,3.94-27.35,3.19-4.53-.36-9.01-1.18-13.37-2.45-2.19-.64-4.35-1.38-6.45-2.26-2.04-.85-4.12-1.93-5.43-3.79-.44-.62-.77-1.29-1.02-1.99.05-.23.11-.45.19-.67.16-.45-.14-.85-.59-.89-.46-2.74.25-5.73,1.6-8.11,2.28-4,6.41-6.56,10.4-8.6.75-.39,1.51-.76,2.27-1.13.22.47.44.94.67,1.4,1.95,3.95,4.17,7.76,6.4,11.55-.11.09-.19.2-.21.35-.06.49.61.71.97.76.06,0,.13.01.19.02.15.09.31.15.46.15.11,0,.19-.03.24-.07,9.75,1.15,19.71.62,29.26-1.62,2.63-.62,5.25-1.42,7.63-2.74.03-.01.05-.03.07-.05.16.08.28.14.28.12,0-1.58.38-3.1.85-4.59.5-1.58,1.02-3.16,1.54-4.74.73-2.25,1.46-4.5,2.2-6.74,1.28.62,2.65,1.08,3.99,1.56h-.01ZM80.91,38.72c-.14,1.76-.44,3.55-1.15,5.17-.66,1.5-1.64,2.82-2.79,3.98-1.3,1.31-2.79,2.51-4.38,3.47-1.53.92-3.21,1.55-5.02,1.37-.29-.03-.63.04-.92.17-.22-.12-.38-.19-.39-.18-1.05,3.21-2.09,6.42-3.14,9.63-.5,1.55-1.02,3.09-1.51,4.65-.48,1.52-.88,3.08-.88,4.69,0,.02,0,.04,0,.06-.03.01-.06.02-.08.04-2.03,1.12-4.22,1.84-6.46,2.39-2.34.58-4.71,1.04-7.09,1.39-4.76.71-9.6,1.02-14.41.88-2.71-.08-5.42-.29-8.11-.63-1.87-3.19-3.74-6.39-5.42-9.69-1.74-3.42-3.28-6.94-4.6-10.55-2.67-7.32-4.29-14.93-5.22-22.66-.34-2.8-.59-5.61-.83-8.42.08.03.15.02.14-.07-.04-1.08-.04-2.15-.02-3.23.31.97.83,1.87,1.49,2.65,1.4,1.64,3.35,2.68,5.35,3.39,4.34,1.55,8.98,2.35,13.57,2.58,4.58.23,9.2-.18,13.67-1.19,4.6-1.04,8.95-2.83,13.18-4.88,2.44-1.18,4.85-2.41,7.26-3.63,1.24-.62,2.54-1.21,3.78-1.89-.18,1.76-.38,3.53-.04,5.29,0,.03.05.05.12.05,0,.17.16.31.4.35.48.07,1.03-.18,1.38-.49,1.93-1.73,4.82-1.83,7.12-.79,2.66,1.21,4.05,3.97,4.63,6.7.64,3.04.58,6.31.33,9.39h.03Z"/>
  <path class="cls-1" d="M77.06,32.4c-.91-1.21-2.29-2.16-3.71-2.65-1.5-.52-3.09-.41-4.65-.28-.15.01,0,.19.18.35h-.04c-.44.06-.91.29-.94.78-.31,4.45-.93,8.88-1.84,13.25-.37.53-1.01.94-1.24,1.52-.46,1.17.95,2.06,1.79,2.53,2.25,1.27,5.03.35,6.94-1.14,2.13-1.66,3.45-4.18,4.24-6.72.79-2.54.94-5.42-.73-7.65h0ZM76.07,38.91c-1.25,4.01-4.23,8.45-8.92,8.42-.21,0-.41-.02-.62-.06-.11-.38-.04-.71.16-1.03.47-.03.94-.24,1.03-.61.07-.31.13-.61.2-.92.07-.16.11-.35.12-.55.94-4.48,1.57-9.02,1.89-13.59.13.06.26.1.38.09,1.18-.1,2.41-.22,3.59.01.23.04.45.1.67.17.06.02.47.22.34.13.38.28.69.75.92,1.16,1.18,2.09.94,4.58.25,6.79h0Z"/>
</svg>