<?xml version="1.0" encoding="UTF-8"?>
<svg id="Layer_2" data-name="Layer 2" xmlns="http://www.w3.org/2000/svg" viewBox="0 0 120.95 130.95">
  <defs>
    <style>
      .cls-1 {
        fill: #e7e7dc;
      }
    </style>
  </defs>
  <g id="Layer_1-2" data-name="Layer 1">
    <g>
      <path class="cls-1" d="M120.61,60.57c-.69-1.01-1.93-1.34-3.08-1.19-5.7-2.07-11.39-4.16-17.11-6.15-6.29-2.19-12.74-4.05-19.41-4.45-.01-.02-.02-.04-.04-.06-3.44-5.13-6.21-10.35-7.07-16.53-.45-3.19-.99-6.25-2.08-9.29-1.04-2.91-2.24-5.79-2.29-8.92,0-.36-.11-.72-.27-1.07.2-.59.11-1.2-.61-1.55-.33-.16-.72-.19-1.12-.16-.04-.02-.08-.04-.12-.05-.87-.3-1.55.07-1.78.8-.13.1-.24.2-.34.31-8.62,9.76-16.81,19.9-24.58,30.35-.25-.12-.5-.18-.75-.17-12.54.72-25.08,1.22-37.64,1.49-.46.01-.77.16-.95.39,0,0,0,0-.01,0-.98.4-1.85,1.71-1.06,2.71,7.79,9.89,16.24,19.6,22.08,30.83.19.36.46.61.78.8-.25.19-.45.4-.57.62-3.14,6.21-5.18,12.74-6.53,19.55-.71,3.57-1.45,7.1-2.61,10.55-1.09,3.23-2.26,6.52-1.7,9.98,0,.02.56-.15,1.27-.4.67,1.02,1.64,1.84,2.34,1.48,6.4-3.35,13-6.3,19.67-9.07,3.3-1.37,6.62-2.7,9.94-4.02,2.24-.89,4.86-2.29,7.43-2.65,2.4,1.78,4.41,3.98,6.4,6.21,2.38,2.67,4.81,5.22,7.64,7.42,5.67,4.39,12.2,7.49,18.65,10.54.08.04.17.06.27.07.63,1.21,2.91,2.5,4.03,1.78,1.41-.89.88-3.07.83-4.46-.07-1.9-.14-3.8-.21-5.71-.14-3.89-.28-7.77-.42-11.66-.28-7.75-.56-15.5-.84-23.25,5-4.15,10.1-8.19,15.29-12.1,2.6-1.96,5.22-3.89,7.87-5.78,1.29-.93,2.58-1.85,3.89-2.75,1.25-.87,2.44-1.67,3.95-1.96.87-.17,1.26-.97,1.15-1.74.11-.29,0-.55-.3-.76ZM109.26,64.01c-2.78,1.98-5.53,4-8.26,6.05-5.39,4.05-10.69,8.25-15.88,12.56-.17.14-.29.29-.4.44-.3.12-.52.34-.5.74.27,7.44.53,14.89.8,22.33.13,3.64.26,7.28.39,10.92.07,1.82.13,3.64.2,5.46.04.99.07,1.98.11,2.98,0,.04,0,.09.01.14-5.05-2.45-10.02-5.1-14.46-8.54-2.78-2.15-5.17-4.65-7.5-7.26-2.33-2.61-4.69-5.21-7.64-7.14-.1-.06-.24-.09-.4-.09-.42-.82-1.11-1.72-1.91-1.94-3.6-.98-7.01.72-10.3,2.02-3.47,1.37-6.94,2.75-10.39,4.18-5.78,2.39-11.5,4.92-17.1,7.7.13-2.64,1.06-5.19,1.91-7.72,1.08-3.24,1.77-6.57,2.43-9.92,1.27-6.43,3.14-12.6,5.96-18.5.67-.51,1-1.33.48-2.33-5.26-10.13-12.66-19.02-19.77-27.92,11.49-.28,22.97-.75,34.44-1.41.93-.05,1.23-.64,1.16-1.36.6-.27,1.13-.7,1.51-1.22,6.97-9.42,14.32-18.55,21.99-27.4.45,1.83,1.09,3.61,1.74,5.39,1.19,3.3,1.69,6.56,2.24,10.01,1.01,6.39,3.93,11.95,7.41,17.29-.09.08-.18.16-.25.25-.65.86.37,1.32,1.15,1.36.08,0,.16.01.24.02.65.65,1.71,1.17,2.48.61.14-.1.24-.22.32-.35,5.54.68,10.91,2.34,16.18,4.19,5.21,1.83,10.41,3.73,15.6,5.61-1.4.88-2.71,1.94-4,2.85Z"/>
      <path class="cls-1" d="M90.52,65.18c.02-1.25-1.32-1.88-2.41-1.75-.13.02-.26.05-.4.07-2.98-1.61-6.03-3.14-9.3-4.06-3.32-.94-6.78-1.12-10.22-1.08-1.98-5.42-2.8-11.26-2.28-17.02.11-1.24-.75-2.13-1.92-2.45,0,0,0,0,0,0-.76-.36-1.61-.4-2.22.22,0,0,0,0,0,0-.26.14-.46.33-.57.59-5.4,5.41-10.39,11.21-14.91,17.38-6.48-1.19-13.03-2-19.61-2.36,0,0-.02,0-.03,0-.51-.62-1.49-1.67-2.27-1.15-.63.42-.21,1.53.18,2.23-.08.2-.13.41-.09.66.12.98,1.09,1.58,2.02,1.82,4.21,5.21,8.64,10.24,13.32,15.05-.41.24-.74.51-.73.79.13,4.08-2.36,8.01-3.88,11.67-1.25,2.99-2.37,6.02-3.25,9.13-.27.2-.51.44-.71.72-.47.63-.81,2.13.41,2.24,4.43.4,8.31-1.65,12.09-3.71,3.5-1.91,6.9-3.97,10.2-6.19,3.02,1.93,5.69,4.24,8.09,6.92,2.52,2.82,5.04,5.85,8.54,7.48,1.13.53,2.5.31,3.44-.54.15-.13.28-.31.4-.5.43-.06.61-.47.43-1.13-1-3.83-2.01-7.66-3-11.5-.96-3.76-1.79-7.64-1.19-11.52.01-.1.01-.19,0-.29,3.01-1.91,6.02-3.81,9.03-5.72,2.17-1.37,4.41-2.79,6.87-3.44.14.08.28.15.42.23,1.05.57,2.61.4,3.21-.73.23-.43.26-.89.17-1.32.11-.23.18-.48.19-.75ZM66.78,76.66c-.07,3.14.52,6.23,1.28,9.31-.12-.07-.24-.15-.38-.19-.41-.13-.82-.26-1.24-.39.94-.99.06-2.94-1.08-3.78,1.26-1.13.29-3.62-1.23-4.23.26-.33.5-.68.74-1.04.7-.62,1.38-1.25,2.06-1.89-.01.13-.03.27-.05.4-.36.55-.48,1.21-.12,1.81ZM60.74,68.07c1.61-.15,3.22-.31,4.83-.46.12,0,.23.01.35.02-1.74.59-3.5,1.14-5.27,1.66.16-.35.18-.78.09-1.22ZM43.58,72.39c.35.34.75.59,1.14.65.68.11,1.37.2,2.05.3-1.18.46-2.33.97-3.47,1.52.18-.81.27-1.64.28-2.47ZM41.1,80.69c.23.13.48.22.73.23.33.01.67,0,1,.02-.88.51-1.74,1.06-2.59,1.63.27-.62.56-1.25.86-1.88ZM65.33,62.43c-1.12.03-2.24.06-3.36.08.61-.28,1.23-.54,1.83-.83.27-.13.45-.31.59-.52.04.1.08.2.12.29.17.4.47.72.82.97ZM62.07,54.11c-.21-.13-.43-.23-.64-.28-1.74-.43-3.48-.85-5.22-1.28,0,0,0,0,0,0,1.57-1.86,3.17-3.69,4.82-5.47.16,2.37.51,4.72,1.05,7.04ZM47.93,61.01c.56.19,1.15.22,1.58-.08.54-.17.99-.51,1.13-1.11.03-.11.02-.21.02-.31.36-.48.73-.95,1.09-1.42.35.93,1.05,1.63,2.03,1.92.29.09.59.16.88.24-1.65.66-3.32,1.29-5.01,1.87-.41,0-.82,0-1.22,0-.2-.44-.47-.84-.77-1.14.04,0,.09.02.13.02.04,0,.09.01.14.02ZM32.95,62.31c1.26,0,2.52.05,3.78.18-.46.55-.48,1.45-.25,2.14.28.82.82,1.47,1.54,1.8-.06,1.32,1.01,2.97,2.28,3.1.7.07,1.41.12,2.11.18-.06.72.27,1.58.78,2.25-.3.06-.72.2-1.1.34-.19-.29-.39-.54-.56-.7-2.96-3.01-5.82-6.11-8.58-9.29ZM43.65,90.7c-2.21,1.23-4.87,2.99-7.54,3.42.3-1.15.65-2.28,1.01-3.41.61.7,1.48,1.07,2.35.64,3.19-1.6,6.47-2.95,9.85-4.06-1.86,1.19-3.75,2.34-5.68,3.42ZM71,97.31c-1.32-1.09-2.49-2.35-3.64-3.64.12-.17.22-.37.28-.61.04-.18.05-.37.05-.55.7-.31.97-1.17.86-1.91-.03-.18,0-.38.17-.51.12-.1.21-.23.3-.36.65,2.53,1.32,5.05,1.98,7.58ZM68.14,73.75c-.11-.05-.22-.1-.33-.13.61-.58,1.23-1.15,1.83-1.74.12-.12.21-.26.27-.41,1.52-.54,3.03-1.1,4.53-1.7-2.1,1.33-4.2,2.65-6.29,3.98ZM79.23,66.8c0-1.33-1.25-3.08-2.36-3.14l-3.6-.21c-.14-.2-.31-.38-.49-.54,1.64.12,3.27.36,4.87.81,1.47.42,2.88.99,4.26,1.63-.92.44-1.81.93-2.69,1.45Z"/>
      <path class="cls-1" d="M112.95,22.58c-.86-.16-2.36-.41-3.12.22-5.28,4.41-10.55,8.82-15.83,13.23-.68.57,1.39,1.11,1.63,1.15.86.16,2.36.41,3.12-.22,5.28-4.41,10.55-8.82,15.83-13.23.68-.57-1.39-1.11-1.63-1.15Z"/>
      <path class="cls-1" d="M31.83,1.62c-.25-.84-2.04-1.28-2.76-1.45-.33-.08-2.18-.48-1.94.31,2.01,6.63,3.64,13.37,4.86,20.19.21,1.17,4.88,2.13,4.7,1.14-1.23-6.82-2.85-13.56-4.86-20.19Z"/>
      <path class="cls-1" d="M27.45,31.08c-5.45-3.69-8.9-9.57-12.53-14.91-.59-.87-2.09-.97-3.03-.91-.42.03-2.39.36-1.81,1.21,3.75,5.52,7.36,11.63,13,15.44.96.65,2.27.79,3.39.57.54-.11,1.95-.75.97-1.41Z"/>
    </g>
  </g>
</svg>