<?xml version="1.0" encoding="UTF-8"?>
<svg id="Layer_2" data-name="Layer 2" xmlns="http://www.w3.org/2000/svg" viewBox="0 0 82.47 89.82">
  <defs>
    <style>
      .cls-1 {
        fill: #e7e7dc;
      }
    </style>
  </defs>
  <g id="Layer_1-2" data-name="Layer 1">
    <g>
      <path class="cls-1" d="M82.24,33.77c-.47-.69-1.32-.92-2.1-.81-3.88-1.41-7.76-2.83-11.67-4.19-4.29-1.5-8.68-2.76-13.24-3.04,0-.01-.02-.03-.03-.04-.28-.42-.56-.85-.83-1.28-.76-2.46-1.88-4.75-3.3-6.89-.31-1-.54-2.03-.69-3.1-.3-2.18-.68-4.26-1.41-6.34-.71-1.98-1.53-3.95-1.56-6.08,0-.24-.08-.49-.19-.73.14-.4.07-.82-.42-1.05-.22-.11-.49-.13-.76-.11-.03-.01-.05-.03-.08-.04-.59-.2-1.05.05-1.21.55-.09.07-.16.14-.23.21-5.88,6.66-11.46,13.57-16.76,20.69-.17-.08-.34-.13-.51-.12-8.55.49-17.1.83-25.66,1.02-.32,0-.52.11-.65.27,0,0,0,0,0,0-.67.27-1.26,1.16-.72,1.85.92,1.16,1.85,2.33,2.78,3.49.06.15.17.29.34.42,4.36,5.43,8.73,10.93,11.93,17.11.13.24.31.42.53.54-.17.13-.31.27-.39.42-2.14,4.23-3.53,8.69-4.45,13.33-.48,2.43-.99,4.84-1.78,7.19-.74,2.2-1.54,4.45-1.16,6.8,0,.01.38-.1.86-.27.46.69,1.12,1.26,1.59,1.01,4.36-2.28,8.86-4.29,13.41-6.18,2.25-.93,4.51-1.84,6.78-2.74,1.53-.61,3.31-1.56,5.07-1.8,1.63,1.21,3.01,2.72,4.36,4.23,1.62,1.82,3.28,3.56,5.21,5.06,3.87,3,8.32,5.11,12.72,7.19.05.03.12.04.18.05.43.83,1.98,1.7,2.75,1.22.96-.61.6-2.09.57-3.04-.05-1.3-.09-2.59-.14-3.89-.1-2.65-.19-5.3-.29-7.95-.19-5.28-.38-10.57-.57-15.85,3.41-2.83,6.88-5.59,10.42-8.25,1.77-1.34,3.56-2.65,5.37-3.94.88-.63,1.76-1.26,2.65-1.88.85-.59,1.66-1.14,2.69-1.34.59-.11.86-.66.79-1.19.08-.19,0-.37-.2-.52ZM51.66,55.86c.06,1.58.11,3.16.17,4.73.03.79.06,1.58.09,2.37.02.43.03.86.05,1.29,0,.02,0,.04,0,.06-2.19-1.06-4.34-2.21-6.27-3.7-1.2-.93-2.24-2.02-3.25-3.15-1.01-1.13-2.03-2.26-3.31-3.09-.04-.03-.1-.04-.17-.04-.18-.36-.48-.75-.83-.84-1.56-.42-3.04.31-4.46.88-1.5.6-3.01,1.19-4.5,1.81-2.51,1.03-4.99,2.13-7.42,3.34.06-1.15.46-2.25.83-3.35.47-1.41.77-2.85,1.05-4.3.55-2.79,1.36-5.46,2.59-8.02.29-.22.43-.58.21-1.01-2.28-4.39-5.49-8.25-8.57-12.11,4.98-.12,9.96-.32,14.93-.61.4-.02.53-.28.5-.59.26-.12.49-.31.66-.53,3-4.06,6.17-7.99,9.48-11.81.03,0,.05,0,.08,0,.04.15.09.3.13.45.36,1.68.81,3.35,1.37,5,0,0,.01.01.01.02.06.38.13.76.19,1.15.44,2.77,1.7,5.18,3.21,7.5-.04.03-.08.07-.11.11-.28.37.16.57.5.59.04,0,.07,0,.11,0,.28.28.74.51,1.08.26.06-.04.1-.1.14-.15,2.4.29,4.73,1.02,7.02,1.82,2.26.79,4.51,1.62,6.77,2.43-.61.38-1.18.84-1.73,1.24-1.21.86-2.4,1.73-3.58,2.62-2.34,1.76-4.63,3.58-6.88,5.45-.07.06-.13.13-.17.19-.13.05-.22.15-.22.32.12,3.23.23,6.45.35,9.68ZM18.28,44.35c-.32-.62-.67-1.22-1.01-1.83.46.44.92.88,1.39,1.31.06.05.12.09.19.13-.15.33-.29.66-.41,1,0-.19-.04-.39-.16-.61ZM19.86,60.24c-.04-.18-.08-.37-.15-.56-.06-.18-.19-.3-.33-.39,0-.04,0-.08,0-.12.34-.19.65-.43.86-.7-.18.59-.32,1.18-.38,1.78ZM24.34,43.93c.03-.6-.42-.87-.96-.96-.07-.46-.29-.74-.6-.88.1-.31.12-.62.04-.93-.1-.35-.23-.68-.35-1.01.73,1.12,1.42,2.27,2.03,3.45.08.15.2.27.34.35-.11.08-.2.17-.25.27-.13.27-.24.54-.37.81.04-.37.09-.73.12-1.1ZM18.3,35.21c-.25-.25-.5-.51-.74-.77.15-.13.28-.26.39-.4.3.38.6.76.9,1.14-.18,0-.37,0-.56.03ZM13.78,29.28c.43,0,.86,0,1.29,0-.19.18-.31.44-.26.69-.34-.24-.68-.46-1.02-.69ZM32.03,27.96c.28-.04.58-.13.87-.25-.15.2-.3.4-.45.6-.11-.05-.22-.08-.32-.07-1.17.07-2.34.11-3.51.17,1.14-.14,2.28-.28,3.42-.45ZM50.74,30.56c.55.33,1.17.58,1.84.77-.88-.16-1.77-.28-2.66-.33,0,0-.01-.02-.02-.03-.06-.08-.11-.17-.17-.25.32.02.66-.04,1.01-.15ZM19.54,62.43c.15-.3.27-.61.34-.93,0,.03,0,.07.01.1,0,0,.24-.06.55-.17.12.19.27.35.42.47-.44.18-.88.35-1.31.53ZM42.07,60.46c-.16-.13-.36-.25-.6-.31.13-.27.17-.55.09-.83.64.65,1.3,1.28,2.03,1.84.12.09.25.17.37.26-.63-.32-1.27-.63-1.9-.96ZM40.29,58.13c-.26-.17-.52-.35-.78-.52-.49-.56-1.04-.98-1.73-1.26.14-.2.26-.4.35-.6.78.67,1.47,1.42,2.16,2.19.11.13.23.25.34.37-.11-.07-.22-.12-.33-.18ZM53.28,46.99c2.17-1.8,4.38-3.55,6.63-5.25.11-.08.23-.16.34-.25-2.19,2.02-4.38,4.04-6.57,6.05-.15.13-.26.3-.36.47-.01-.34-.02-.68-.04-1.02ZM66.33,38.58c-.08-.09-.17-.17-.29-.24-.34-.19-.76-.24-1.2-.19.05-.04.11-.08.16-.11.51-.36,1.01-.68,1.62-.82.35.26.72.5,1.11.69.02.01.05.02.08.03-.5.21-.99.42-1.48.64ZM58.29,32.9c-1.31-.46-2.64-.88-3.99-1.21,1.34.22,2.68.41,4,.75-.03.16-.04.32-.02.47ZM17.95,45.94c.08-.06.15-.14.21-.22-.45,1.39-.71,2.81-.76,4.26-.04.03-.07.06-.12.07-.4.07-.82.22-1.21.42.55-1.53,1.17-3.04,1.88-4.53ZM51.29,67.17c.38-.43.59-.93.53-1.38.24.42.91.84,1.41.82.09,1.22.2,2.44.31,3.66-.36-.41-.71-.81-1.04-1.24-.41-.53-.76-1.27-1.27-1.69-.02-.02-.05-.03-.07-.05.04-.04.09-.08.13-.13ZM57.97,64.83l.09,2.49c-.25-2.86-.44-5.73-.55-8.6.08-.2.13-.41.15-.63.01-.23.03-.47.05-.7.09,2.48.18,4.96.27,7.44ZM62.52,44.34c1.44-1.04,2.95-1.98,4.58-2.74-1.95,1.49-3.88,3-5.78,4.54.38-.62.78-1.22,1.21-1.8ZM55.33,27.72c.1-.07.16-.15.22-.24,2.1.26,4.15.72,6.18,1.3-.22.03-.45.09-.68.17-1.19-.32-2.41-.57-3.65-.74-.79-.11-1.51-.22-2.18-.44.03-.02.07-.03.1-.05ZM29.67,62.48c-2.37.94-4.73,1.88-7.08,2.85-.18.08-.37.15-.55.23.21-.18.43-.35.64-.53.25-.22.53-.51.74-.83.13-.05.26-.1.39-.15,3.61-.86,7.09-2.05,10.46-3.59.51.18,1.05.32,1.57.49-2.14-.24-4.19.75-6.17,1.53ZM45.46,69.47c.63.29,1.25.58,1.88.87.6.84,1.25,1.65,1.92,2.43-.22-.16-.45-.31-.67-.47-1.12-.87-2.15-1.83-3.13-2.83ZM57.57,77.68c.32-.18.61-.39.84-.64.01.33.02.66.04.98,0,.03,0,.06,0,.1-.3-.14-.59-.3-.89-.44Z"/>
      <path class="cls-1" d="M34.51,71.13c-.08.38-.02.14,0,0h0Z"/>
      <path class="cls-1" d="M31.09,71.87c-.68-.2-1.55.05-2.05.55-3.18,3.18-5.99,6.72-8.38,10.53-.37.6.33,1,.84,1.04.69.05,1.52-.24,1.9-.84,2.29-3.65,4.98-7.01,8.02-10.06.45-.45.27-1.04-.33-1.22Z"/>
      <path class="cls-1" d="M32.96,77.01c-.97,4.06-1.93,8.13-2.9,12.19-.25,1.07,2.66.63,2.9-.36.97-4.06,1.93-8.13,2.9-12.19.25-1.07-2.66-.63-2.9.36Z"/>
      <path class="cls-1" d="M76.68,67.23c-2.56-3.92-6.07-7.16-10.19-9.37-.52-.28-1.35,0-1.86.18-.13.05-1.3.57-.87.8,4.04,2.17,7.51,5.33,10.02,9.17.46.7,3.12-.44,2.9-.78Z"/>
      <path class="cls-1" d="M76.39,54.5c-2.93-1.82-6.42-2.5-9.84-2.16-.54.05-1.52.37-1.65.99-.14.65.87.67,1.25.63.2-.02.4-.04.61-.05-.17,0,.27,0,.32,0,.38,0,.76,0,1.14.03.63.05,1.27.15,1.93.31,1.39.33,2.71.91,3.93,1.66.56.35,1.54.05,2.05-.27.44-.28.82-.79.25-1.14Z"/>
    </g>
  </g>
</svg>