<?xml version="1.0" encoding="UTF-8"?>
<svg id="Layer_2" data-name="Layer 2" xmlns="http://www.w3.org/2000/svg" viewBox="0 0 155.2 122.83">
  <defs>
    <style>
      .cls-1 {
        fill: #e7e7db;
      }

      .cls-2 {
        fill: #232426;
      }

      .cls-3 {
        fill: #e7e7dc;
      }
    </style>
  </defs>
  <g id="Layer_1-2" data-name="Layer 1">
    <g>
      <g>
        <ellipse class="cls-2" cx="72.52" cy="57.04" rx="9.94" ry="6.74"/>
        <path class="cls-3" d="M72.52,64.38c-5.87,0-10.65-3.29-10.65-7.34s4.78-7.34,10.65-7.34,10.65,3.29,10.65,7.34-4.78,7.34-10.65,7.34ZM72.52,50.89c-5.09,0-9.24,2.76-9.24,6.15s4.14,6.15,9.24,6.15,9.24-2.76,9.24-6.15-4.14-6.15-9.24-6.15Z"/>
      </g>
      <path class="cls-1" d="M88.36,51.82c-.21-.12-.42-.11-.61-.01-.04-.02-.09-.03-.13-.04-.69-.18-1.38-.34-2.08-.5.02-.08.03-.15.05-.23-.33-.02-.66-.04-.99-.07-.24-.03-.46-.07-.69-.11,0,.03,0,.06-.02.08-1.73-.32-3.48-.56-5.22-.71,0-.04,0-.08,0-.12-.05,0-.11-.01-.16-.02-.42.17-.95.18-1.3-.09-.05-.04-.06-.05-.07-.06-.02,0-.05-.02-.07-.02-.04-.02-.08-.03-.12-.05,0,.08,0,.16,0,.23-1.96-.11-3.93-.11-5.89,0-1.38.08-2.77.17-4.14.43-.11.02-.22.05-.32.07-.05-.06-.08-.13-.13-.2-.26.23-.64.36-.97.36-.05,0-.1-.02-.15-.02-.08.01-.15.02-.23.02-.1,0-.2-.01-.29-.03.05.07.09.14.14.21.03.04.08.07.12.1-.68.25-1.34.57-1.99.93-1.88,1.04-3.73,2.16-5.52,3.41-.04-.05-.07-.1-.12-.15-.18.27-.46.45-.76.56-.08.13-.18.24-.3.34.03,0,.06.03.09.04-.17.13-.35.26-.52.39-1.58,1.21-3.1,2.52-4.59,3.88-.08-.04-.15-.08-.22-.12-.2.37-.56.67-.94.8-.17.05-.36.06-.56.04.17.11.34.21.52.3.02.01.05.02.08.03-.49.46-.98.93-1.47,1.39-.13.12-.11.31-.04.5-.23.32-.3.9.02,1.18,2.36,2.04,5.08,3.1,7.99,3.29,3.14.2,6.3.15,9.44.2,2.98.04,5.93-.14,8.71-1.53,2.63-1.31,5.02-3.27,7.21-5.41,2.44-2.37,4.61-5.11,6.49-8.1.24-.38.08-.97-.27-1.17ZM81.95,59.06c-1.99,2.06-4.18,3.95-6.56,5.34-1.18.69-2.45,1.23-3.75,1.52-1.4.31-2.83.37-4.25.38-2.98,0-5.95-.08-8.93-.14-1.59-.03-3.16-.15-4.69-.67-1.17-.4-2.29-1.02-3.3-1.81,1.88-1.8,3.79-3.54,5.8-5.13,2.22-1.75,4.56-3.22,6.94-4.62,1.15-.68,2.32-1.34,3.58-1.69,1.32-.36,2.68-.47,4.02-.57,2.72-.2,5.45-.2,8.16.03,2.64.22,5.27.64,7.86,1.25-1.46,2.21-3.1,4.26-4.88,6.11Z"/>
      <path class="cls-3" d="M155.09,38.92c-.67-6.47-3.07-13.06-6.5-18.78-.07-.12-.14-.23-.21-.34-1.06-1.73-2.2-3.38-3.42-4.92-5.18-6.51-12.35-11.57-20.45-13.66C119.36-.11,114.05-.11,108.78.1c-5.26.21-10.52.72-15.44,2.7-.1-.13-.19-.27-.29-.4,0-.04,0-.08-.01-.12-.18-.68-1.15-.84-1.73-.65C65.95,10.04,40.74,18.91,15.71,28.25c-5.25,1.96-10.48,3.95-15.71,5.95.32.64.61,1.29.87,1.95.06-.02.12-.05.18-.07-.01.04-.02.08,0,.12l34.35,67.35c2.96,5.81,5.92,11.61,8.89,17.42-.22.08-.44.17-.66.25.06.07.13.12.18.21.23.35.42.7.6,1.06.18-.07.37-.14.55-.21.05.1.1.2.15.3.37.73,3.15-.29,2.9-.78-.1-.19-.2-.38-.29-.58,21.61-8.28,43.08-16.96,64.35-26.08,6.89-2.95,13.75-5.95,20.6-8.99.39-.17,1.17-.62.78-1.13-.37-.48-1.49-.2-1.91-.01-.2.09-.39.17-.59.26-.19-.47-.35-.95-.51-1.43,3.81-1.56,6.68-4.64,9.24-7.77,2.8-3.42,5.3-7.09,7.48-10.94,2.24-3.94,4.13-8.09,5.63-12.36,1.59-4.51,2.8-9.04,2.3-13.86ZM57.58,115.86c-3.5,1.37-7.01,2.72-10.53,4.07-11.12-21.8-22.24-43.6-33.36-65.41-3.25-6.36-6.49-12.73-9.74-19.09-.08-.16-.27-.23-.51-.25,22.2-8.44,44.52-16.54,66.99-24.25,6.78-2.33,13.58-4.61,20.38-6.87.22.29.43.6.64.89,6.97,14.38,14.04,28.7,21.22,42.98.85,2.29,1.7,4.59,2.54,6.88.94,1.98,2.05,3.88,3.12,5.79,1.38,2.47,2.47,5.04,3.72,7.57,2.21,4.48,5.43,9.11,5.78,14.23.05.7-.32,1.14-.81,1.33.07.15.14.3.22.46.03.07.09.11.17.15.24.72.49,1.42.79,2.12-23.33,10.29-46.88,20.11-70.63,29.39ZM111.57,41.29c.15-.68.81-1.07,1.46-1.08.2-.03.41-.03.61.04,1.36.42,2.71,1.28,3.32,2.61.31.67.5,1.4.43,2.15-.08.82-.33,1.58-.79,2.27-.22.34-.54.55-.89.66-.06.11-.11.23-.18.34-.11.17-.19.26-.35.41-.03.02-.05.04-.08.07,0,0-.02.01-.05.03-1.54-1.75-2.43-4-3.26-6.2,0,0,0,0,.01,0-.25-.37-.35-.84-.25-1.28ZM149.19,52.9c-.85,2.43-1.74,4.84-2.71,7.23.34-.51.69-1.01,1.06-1.51-.42.93-.86,1.85-1.32,2.76-.32.65-.68,1.27-1.03,1.91-.82,1.97-1.7,3.98-2.9,5.69-2.68,3.81-7.1,6.16-9.35,10.27-.27.49-.67.7-1.09.73-.66.44-1.55.42-1.96-.5-3.48-7.82-7.17-15.54-10.95-23.22.31-.11.61-.25.85-.38,3.17-1.82,5.74-4.6,7.27-7.92,1.53-3.31,2.41-7.92.56-11.28-1.83-3.34-5.68-5.4-9.28-6.23-3.83-.88-7.86-.49-11.51.91-.05.02-.12.05-.2.08-.28-.55-.57-1.1-.84-1.65-3.88-7.84-7.7-15.72-11.02-23.82-.62-1.53,1.39-2.31,2.45-1.41.13-.08.27-.16.44-.21.17-.05.33-.08.5-.12.17-.08.37-.14.59-.16.03,0,.06,0,.09,0,3.02-.76,6.12-1.18,9.22-1.35.63-.03,1.26-.05,1.89-.07.69-.08,1.39-.15,2.09-.21,3.51-.28,7.02.02,10.5.57,4.56.72,10.62,2.14,13.64,6.08.02.01.04.02.05.04.75.59,1.42,1.26,2.04,1.96,3.82,2.54,6.1,7.31,8.15,11.23,1.04,1.98,2.14,3.92,2.99,5.99,1.07,2.61,1.72,5.33,2.04,8.13.63,5.61-.42,11.17-2.26,16.46Z"/>
      <path class="cls-3" d="M147.27,40.93c-.83-6.08-2.73-11.99-5.58-17.42-.3-.57-1.16-.07-.86.5,2.68,5.1,4.47,10.63,5.35,16.32-.25.06-.49.28-.44.61,1.41,9.67-1.91,19.83-8.45,27.04-1.85,2.04-3.95,3.84-6.27,5.33-.54.35-.04,1.21.5.86,8.51-5.5,14.11-14.91,15.31-24.92.31-2.57.28-5.15-.03-7.71.26-.04.53-.27.48-.61Z"/>
      <path class="cls-3" d="M128.81,51.69c-2.01,2.3-4.02,4.6-6.03,6.9-.42.48.28,1.19.71.71,2.01-2.3,4.02-4.6,6.03-6.9.42-.48-.28-1.19-.71-.71Z"/>
      <path class="cls-3" d="M130.16,56.69c-1.76,1.67-3.51,3.34-5.27,5.01-.47.44.24,1.15.71.71,1.76-1.67,3.51-3.34,5.27-5.01.47-.44-.24-1.15-.71-.71Z"/>
      <path class="cls-3" d="M141.41,51.17c-.58,7.78-5.08,15.07-11.74,19.12-.55.33-.05,1.2.5.86,5.41-3.28,9.46-8.6,11.27-14.66.52-1.73.84-3.52.97-5.32.05-.64-.95-.64-1,0Z"/>
      <path class="cls-3" d="M119.55,11.42c-6.46-1.91-13.46-1.74-19.82.5-.6.21-.34,1.18.27.96,6.2-2.18,12.98-2.37,19.29-.5.62.18.88-.78.27-.96Z"/>
      <path class="cls-3" d="M113.4,14.95c-3.86-.15-7.72.05-11.54.57-.63.09-.36,1.05.27.96,3.74-.51,7.51-.68,11.28-.53.64.02.64-.98,0-1Z"/>
      <path class="cls-3" d="M132.99,11.62c-6.89-6.18-16.63-6.71-25.36-5.52-2.9.4-5.78.96-8.65,1.53-.63.13-.36,1.09.27.96,8.88-1.76,18.41-3.53,27.09.03,2.17.89,4.2,2.13,5.95,3.7.48.43,1.19-.28.71-.71Z"/>
    </g>
  </g>
</svg>